<svg width="21" height="21" viewBox="0 0 21 21" fill="none" xmlns="http://www.w3.org/2000/svg">
<path d="M12.7461 4.63148C13.6329 4.80449 14.4478 5.23817 15.0867 5.87702C15.7255 6.51586 16.1592 7.33081 16.3322 8.21756M12.7461 1C14.5884 1.20467 16.3064 2.02968 17.618 3.33959C18.9295 4.64949 19.7567 6.36643 19.9637 8.20848M19.0558 15.4533V18.1769C19.0568 18.4297 19.005 18.68 18.9038 18.9117C18.8025 19.1433 18.6539 19.3513 18.4676 19.5222C18.2813 19.6932 18.0613 19.8233 17.8218 19.9043C17.5823 19.9853 17.3285 20.0154 17.0767 19.9926C14.283 19.6891 11.5995 18.7345 9.24175 17.2055C7.04818 15.8116 5.18841 13.9518 3.79453 11.7583C2.26021 9.38981 1.30537 6.69324 1.00737 3.88702C0.984682 3.63597 1.01452 3.38294 1.09498 3.14405C1.17544 2.90515 1.30476 2.68563 1.47471 2.49946C1.64466 2.31328 1.85151 2.16453 2.0821 2.06268C2.31268 1.96083 2.56195 1.90811 2.81403 1.90787H5.53764C5.97823 1.90353 6.40537 2.05956 6.73944 2.34685C7.07351 2.63415 7.29171 3.03313 7.35338 3.46941C7.46833 4.34102 7.68153 5.19683 7.98889 6.02052C8.11103 6.34547 8.13747 6.69862 8.06506 7.03813C7.99265 7.37764 7.82444 7.68928 7.58034 7.93612L6.42735 9.08912C7.71975 11.362 9.60167 13.2439 11.8746 14.5363L13.0276 13.3833C13.2744 13.1392 13.586 12.971 13.9256 12.8986C14.2651 12.8262 14.6182 12.8527 14.9432 12.9748C15.7669 13.2822 16.6227 13.4954 17.4943 13.6103C17.9353 13.6725 18.3381 13.8947 18.626 14.2345C18.9139 14.5743 19.0669 15.008 19.0558 15.4533Z" stroke="#6D6D6D" stroke-width="1.5" stroke-linecap="round" stroke-linejoin="round"/>
</svg>
