<svg width="18" height="22" viewBox="0 0 18 22" fill="none" xmlns="http://www.w3.org/2000/svg">
<path d="M17 9.44434C17 15.6666 9 20.9999 9 20.9999C9 20.9999 1 15.6666 1 9.44434C1 7.3226 1.84285 5.28777 3.34315 3.78748C4.84344 2.28719 6.87827 1.44434 9 1.44434C11.1217 1.44434 13.1566 2.28719 14.6569 3.78748C16.1571 5.28777 17 7.3226 17 9.44434Z" stroke="#FF0000" stroke-width="1.5" stroke-linecap="round" stroke-linejoin="round"/>
<path d="M9.00065 12.1109C10.4734 12.1109 11.6673 10.917 11.6673 9.44425C11.6673 7.9715 10.4734 6.77759 9.00065 6.77759C7.52789 6.77759 6.33398 7.9715 6.33398 9.44425C6.33398 10.917 7.52789 12.1109 9.00065 12.1109Z" stroke="#FF0000" stroke-width="1.5" stroke-linecap="round" stroke-linejoin="round"/>
</svg>
