<svg width="26" height="25" viewBox="0 0 26 25" fill="none" xmlns="http://www.w3.org/2000/svg">
<path d="M21.1075 24H4.59558C2.66735 24 1.09082 22.4235 1.09082 20.4952V4.50476C1.09082 2.57653 2.66735 1 4.59558 1H21.1075C23.0357 1 24.6122 2.57653 24.6122 4.50476V20.4952C24.6153 22.4235 23.0357 24 21.1075 24Z" stroke="black" stroke-width="1.5" stroke-miterlimit="10" stroke-linecap="round" stroke-linejoin="round"/>
<path d="M12.8511 18.2335C16.1959 18.2335 18.9073 15.522 18.9073 12.1773C18.9073 8.83255 16.1959 6.12109 12.8511 6.12109C9.50638 6.12109 6.79492 8.83255 6.79492 12.1773C6.79492 15.522 9.50638 18.2335 12.8511 18.2335Z" stroke="black" stroke-width="1.5" stroke-miterlimit="10" stroke-linecap="round" stroke-linejoin="round"/>
<path d="M19.8913 6.43303C20.2628 6.43303 20.5639 6.13191 20.5639 5.76046C20.5639 5.38901 20.2628 5.08789 19.8913 5.08789C19.5199 5.08789 19.2188 5.38901 19.2188 5.76046C19.2188 6.13191 19.5199 6.43303 19.8913 6.43303Z" stroke="black" stroke-width="1.5" stroke-miterlimit="10" stroke-linecap="round" stroke-linejoin="round"/>
</svg>
