<svg width="15" height="15" viewBox="0 0 15 15" fill="none" xmlns="http://www.w3.org/2000/svg">
<path d="M6.68506 2H2.26335C1.92829 2 1.60695 2.1331 1.37003 2.37003C1.1331 2.60695 1 2.92829 1 3.26335V5.79004V10.2148" stroke="black" stroke-width="1.5" stroke-linecap="round" stroke-linejoin="round"/>
<path d="M12.3701 11L12.3701 12.7415C12.3701 13.0766 12.237 13.3979 12.0001 13.6349C11.7632 13.8718 11.4418 14.0049 11.1068 14.0049L2.26334 14.0049C1.92828 14.0049 1.60694 13.8718 1.37002 13.6349C1.13309 13.3979 0.999989 13.0766 0.999989 12.7415L0.999989 11.4782L0.999989 10.2148" stroke="black" stroke-width="1.5" stroke-linecap="round" stroke-linejoin="round"/>
<path d="M13.3167 5.42171L10.1584 8.58008L7 5.42171" stroke="black" stroke-width="1.5" stroke-linecap="round" stroke-linejoin="round"/>
<path d="M10.1587 8.58008V0.999993" stroke="black" stroke-width="1.5" stroke-linecap="round" stroke-linejoin="round"/>
</svg>
