<svg width="24" height="24" viewBox="0 0 24 24" fill="none" xmlns="http://www.w3.org/2000/svg">
<path d="M19.3022 11.2166C18.4407 12.7378 14.7128 13.8827 10.2445 13.8827C5.13741 13.8827 1 12.3875 1 10.5419C1 9.62077 2.03517 8.78395 3.70914 8.18066" stroke="#FF0000" stroke-width="1.5" stroke-miterlimit="10" stroke-linecap="round" stroke-linejoin="round"/>
<path d="M19.4922 11.4054C19.4922 11.4054 19.4922 14.0748 19.4922 14.8273C19.4922 16.6728 15.3516 18.1681 10.2478 18.1681C5.14396 18.1681 1 16.6696 1 14.8273C1 14.0975 1 10.5459 1 10.5459" stroke="#FF0000" stroke-width="1.5" stroke-miterlimit="10" stroke-linecap="round" stroke-linejoin="round"/>
<path d="M19.4922 14.7236C19.4922 14.7236 19.4922 18.2525 19.4922 19.005C19.4922 20.8506 15.3516 22.3458 10.2478 22.3458C5.14396 22.3458 1 20.8506 1 19.005C1 18.2752 1 14.7236 1 14.7236" stroke="#FF0000" stroke-width="1.5" stroke-miterlimit="10" stroke-linecap="round" stroke-linejoin="round"/>
<path d="M13.0907 7.68159C18.1963 7.68159 22.3352 6.18586 22.3352 4.34079C22.3352 2.49572 18.1963 1 13.0907 1C7.98509 1 3.84619 2.49572 3.84619 4.34079C3.84619 6.18586 7.98509 7.68159 13.0907 7.68159Z" stroke="#FF0000" stroke-width="1.5" stroke-miterlimit="10" stroke-linecap="round" stroke-linejoin="round"/>
<path d="M22.3352 4.33984C22.3352 4.33984 22.3352 7.86876 22.3352 8.62125C22.3352 10.4668 18.1945 11.962 13.0907 11.962C7.98688 11.962 3.84619 10.4668 3.84619 8.62125C3.84619 7.89146 3.84619 4.33984 3.84619 4.33984" stroke="#FF0000" stroke-width="1.5" stroke-miterlimit="10" stroke-linecap="round" stroke-linejoin="round"/>
</svg>
