<svg width="36" height="35" viewBox="0 0 36 35" fill="none" xmlns="http://www.w3.org/2000/svg">
<path d="M35.5242 0H0V35H35.5242V0Z" fill="#E13010"/>
<path fill-rule="evenodd" clip-rule="evenodd" d="M28.5644 16.8594V29.9926H26.156V28.1159C25.1997 28.7273 24.1731 29.1927 23.0841 29.5119C21.9951 29.8311 20.8631 29.9926 19.6882 29.9926C18.0098 29.9926 16.4367 29.6772 14.9613 29.0542C13.4858 28.4274 12.2055 27.5775 11.1165 26.5045C10.0275 25.4315 9.16483 24.1701 8.52858 22.7165C7.89234 21.2666 7.57617 19.7129 7.57617 18.0593C7.57617 16.4056 7.89234 14.8596 8.52858 13.4213C9.16483 11.9792 10.0275 10.7178 11.1165 9.63328C12.2055 8.54879 13.4858 7.69119 14.9613 7.06434C16.4328 6.43748 18.0098 6.12598 19.6882 6.12598C21.3393 6.12598 22.8967 6.43363 24.3605 7.04511C25.8242 7.65658 27.1162 8.52187 28.2404 9.62944L26.5542 11.2946C25.6447 10.4217 24.5947 9.73712 23.412 9.24102C22.2254 8.74492 20.988 8.49879 19.6921 8.49879C18.3494 8.49879 17.0925 8.74492 15.9176 9.24102C14.7427 9.73712 13.7161 10.4217 12.8261 11.2946C11.9401 12.1676 11.2453 13.1829 10.7418 14.3366C10.2382 15.4942 9.98843 16.7325 9.98843 18.0554C9.98843 19.3784 10.2382 20.6167 10.7418 21.7704C11.2453 22.928 11.9401 23.9432 12.8261 24.8162C13.7122 25.6892 14.7427 26.3738 15.9176 26.8699C17.0925 27.366 18.3494 27.6121 19.6921 27.6121C20.9138 27.6121 22.077 27.3967 23.1778 26.9737C24.2785 26.5507 25.2739 25.9584 26.1599 25.2046V19.2322H19.2588V16.8594H28.5644Z" fill="white"/>
</svg>
