<svg width="37" height="31" viewBox="0 0 37 31" fill="none" xmlns="http://www.w3.org/2000/svg">
<path d="M24.8636 1H1V21.6818H24.8636V1Z" stroke="#FF0000" stroke-width="1.5" stroke-linecap="round" stroke-linejoin="round"/>
<path d="M24.8633 8.9541H31.2269L35.9996 13.7268V21.6814H24.8633V8.9541Z" stroke="#FF0000" stroke-width="1.5" stroke-linecap="round" stroke-linejoin="round"/>
<path d="M8.15891 29.6362C10.3555 29.6362 12.1362 27.8555 12.1362 25.6589C12.1362 23.4623 10.3555 21.6816 8.15891 21.6816C5.96233 21.6816 4.18164 23.4623 4.18164 25.6589C4.18164 27.8555 5.96233 29.6362 8.15891 29.6362Z" stroke="#FF0000" stroke-width="1.5" stroke-linecap="round" stroke-linejoin="round"/>
<path d="M28.8406 29.6362C31.0371 29.6362 32.8178 27.8555 32.8178 25.6589C32.8178 23.4623 31.0371 21.6816 28.8406 21.6816C26.644 21.6816 24.8633 23.4623 24.8633 25.6589C24.8633 27.8555 26.644 29.6362 28.8406 29.6362Z" stroke="#FF0000" stroke-width="1.5" stroke-linecap="round" stroke-linejoin="round"/>
</svg>
