<svg width="38" height="43" viewBox="0 0 38 43" fill="none" xmlns="http://www.w3.org/2000/svg">
<path d="M13.1794 37.7314V38.4279L12.5625 38.1189" stroke="#FF0000" stroke-width="1.5" stroke-linecap="round" stroke-linejoin="round"/>
<path d="M11.3495 37.5077L2.24219 32.9258" stroke="#FF0000" stroke-width="1.5" stroke-linecap="round" stroke-linejoin="round" stroke-dasharray="1 3"/>
<path d="M1.63251 32.6178L1.01562 32.3088V31.6123" stroke="#FF0000" stroke-width="1.5" stroke-linecap="round" stroke-linejoin="round"/>
<path d="M1.01562 30.2046V11.2051" stroke="#FF0000" stroke-width="1.5" stroke-linecap="round" stroke-linejoin="round" stroke-dasharray="6.28 6.28"/>
<path d="M1.01562 10.5002V9.80371L1.63251 10.1128" stroke="#FF0000" stroke-width="1.5" stroke-linecap="round" stroke-linejoin="round"/>
<path d="M2.84766 10.7236L11.955 15.3056" stroke="#FF0000" stroke-width="1.5" stroke-linecap="round" stroke-linejoin="round" stroke-dasharray="1 3"/>
<path d="M12.5625 15.6123L13.1794 15.9214V16.6201" stroke="#FF0000" stroke-width="1.5" stroke-linecap="round" stroke-linejoin="round"/>
<path d="M13.1797 18.0254V37.0272" stroke="#FF0000" stroke-width="1.5" stroke-linecap="round" stroke-linejoin="round" stroke-dasharray="1 3"/>
<path d="M19.0001 23.5075L1 32.3108V9.80427L19.0001 1.00098V23.5075Z" stroke="#FF0000" stroke-width="1.5" stroke-miterlimit="10" stroke-linecap="round" stroke-linejoin="round"/>
<path d="M37.0001 32.3098V9.8033L19 1V23.5065L23.6189 25.7661" stroke="#FF0000" stroke-width="1.5" stroke-miterlimit="10" stroke-linecap="round" stroke-linejoin="round"/>
<path d="M17.6035 41.6773L35.6036 32.874" stroke="#FF0000" stroke-width="1.5" stroke-miterlimit="10" stroke-linecap="round" stroke-linejoin="round" stroke-dasharray="1 3"/>
<path d="M13.1816 38.3495L22.5189 33.7832" stroke="#FF0000" stroke-width="1.5" stroke-miterlimit="10" stroke-linecap="round" stroke-linejoin="round" stroke-dasharray="1 3"/>
<path d="M31.1816 18.918V8.74414" stroke="#FF0000" stroke-width="1.5" stroke-miterlimit="10" stroke-linecap="round" stroke-linejoin="round" stroke-dasharray="1 3"/>
<path d="M23.6191 32.6568L29.1357 35.3531V26.2139L23.6191 23.5176V32.6568Z" stroke="#FF0000" stroke-width="1.5" stroke-miterlimit="10" stroke-linecap="round" stroke-linejoin="round"/>
<path d="M23.6191 23.5172L31.1809 20.3125L37.0004 22.8565L29.1357 26.2135" stroke="#FF0000" stroke-width="1.5" stroke-miterlimit="10" stroke-linecap="round" stroke-linejoin="round"/>
</svg>
